<mxfile host="app.diagrams.net" agent="Mozilla/5.0 (Windows NT 10.0; Win64; x64) AppleWebKit/537.36 (KHTML, like Gecko) Chrome/139.0.0.0 Safari/537.36" version="28.1.0">
  <diagram name="Page-1" id="RHLh1dAAoxzl3VA6SQsA">
    <mxGraphModel dx="1971" dy="1965" grid="1" gridSize="10" guides="1" tooltips="1" connect="1" arrows="1" fold="1" page="1" pageScale="1" pageWidth="850" pageHeight="1100" math="0" shadow="0">
      <root>
        <mxCell id="0" />
        <mxCell id="1" parent="0" />
        <mxCell id="HchQjYpQ1-PrDVRquz_4-6" style="edgeStyle=orthogonalEdgeStyle;rounded=0;orthogonalLoop=1;jettySize=auto;html=1;exitX=0.5;exitY=1;exitDx=0;exitDy=0;entryX=0.5;entryY=0;entryDx=0;entryDy=0;" parent="1" source="HchQjYpQ1-PrDVRquz_4-1" target="HchQjYpQ1-PrDVRquz_4-2" edge="1">
          <mxGeometry relative="1" as="geometry" />
        </mxCell>
        <mxCell id="HchQjYpQ1-PrDVRquz_4-1" value="Start" style="ellipse;whiteSpace=wrap;html=1;fillColor=#33FF33;" parent="1" vertex="1">
          <mxGeometry x="360" y="-120" width="120" height="80" as="geometry" />
        </mxCell>
        <mxCell id="HchQjYpQ1-PrDVRquz_4-2" value="Check Time (clock)" style="shape=parallelogram;perimeter=parallelogramPerimeter;whiteSpace=wrap;html=1;fixedSize=1;fillColor=#007FFF;" parent="1" vertex="1">
          <mxGeometry x="355" width="130" height="60" as="geometry" />
        </mxCell>
        <mxCell id="HchQjYpQ1-PrDVRquz_4-14" style="edgeStyle=orthogonalEdgeStyle;rounded=0;orthogonalLoop=1;jettySize=auto;html=1;exitX=0.5;exitY=1;exitDx=0;exitDy=0;entryX=0.5;entryY=0;entryDx=0;entryDy=0;" parent="1" source="HchQjYpQ1-PrDVRquz_4-11" target="HchQjYpQ1-PrDVRquz_4-13" edge="1">
          <mxGeometry relative="1" as="geometry" />
        </mxCell>
        <mxCell id="HchQjYpQ1-PrDVRquz_4-47" value="" style="edgeStyle=orthogonalEdgeStyle;rounded=0;orthogonalLoop=1;jettySize=auto;html=1;" parent="1" source="HchQjYpQ1-PrDVRquz_4-11" target="HchQjYpQ1-PrDVRquz_4-13" edge="1">
          <mxGeometry relative="1" as="geometry" />
        </mxCell>
        <mxCell id="HchQjYpQ1-PrDVRquz_4-11" value="Check food Level&lt;div&gt;(food sensor)&lt;/div&gt;" style="shape=parallelogram;perimeter=parallelogramPerimeter;whiteSpace=wrap;html=1;fixedSize=1;strokeColor=#330000;fillColor=#007FFF;" parent="1" vertex="1">
          <mxGeometry x="360" y="480" width="120" height="60" as="geometry" />
        </mxCell>
        <mxCell id="HchQjYpQ1-PrDVRquz_4-27" style="edgeStyle=orthogonalEdgeStyle;rounded=0;orthogonalLoop=1;jettySize=auto;html=1;exitX=0.5;exitY=1;exitDx=0;exitDy=0;entryX=0.5;entryY=0;entryDx=0;entryDy=0;" parent="1" source="HchQjYpQ1-PrDVRquz_4-13" target="HchQjYpQ1-PrDVRquz_4-22" edge="1">
          <mxGeometry relative="1" as="geometry" />
        </mxCell>
        <mxCell id="HchQjYpQ1-PrDVRquz_4-48" value="Yes" style="edgeLabel;html=1;align=center;verticalAlign=middle;resizable=0;points=[];" parent="HchQjYpQ1-PrDVRquz_4-27" vertex="1" connectable="0">
          <mxGeometry x="-0.168" y="1" relative="1" as="geometry">
            <mxPoint as="offset" />
          </mxGeometry>
        </mxCell>
        <mxCell id="HchQjYpQ1-PrDVRquz_4-38" style="edgeStyle=orthogonalEdgeStyle;rounded=0;orthogonalLoop=1;jettySize=auto;html=1;exitX=1;exitY=0.5;exitDx=0;exitDy=0;entryX=0;entryY=0.5;entryDx=0;entryDy=0;" parent="1" source="HchQjYpQ1-PrDVRquz_4-13" target="HchQjYpQ1-PrDVRquz_4-21" edge="1">
          <mxGeometry relative="1" as="geometry" />
        </mxCell>
        <mxCell id="HchQjYpQ1-PrDVRquz_4-39" value="No" style="edgeLabel;html=1;align=center;verticalAlign=middle;resizable=0;points=[];" parent="HchQjYpQ1-PrDVRquz_4-38" vertex="1" connectable="0">
          <mxGeometry x="-0.0579" y="-1" relative="1" as="geometry">
            <mxPoint as="offset" />
          </mxGeometry>
        </mxCell>
        <mxCell id="HchQjYpQ1-PrDVRquz_4-13" value="Is Food Available in the dispenser&lt;span style=&quot;background-color: transparent; color: light-dark(rgb(0, 0, 0), rgb(255, 255, 255));&quot;&gt;&amp;nbsp;&lt;/span&gt;" style="rhombus;whiteSpace=wrap;html=1;fillColor=#FFFFCC;" parent="1" vertex="1">
          <mxGeometry x="335" y="580" width="170" height="120" as="geometry" />
        </mxCell>
        <mxCell id="HchQjYpQ1-PrDVRquz_4-21" value="Send Alert" style="shape=parallelogram;perimeter=parallelogramPerimeter;whiteSpace=wrap;html=1;fixedSize=1;fillColor=#007FFF;" parent="1" vertex="1">
          <mxGeometry x="540" y="610" width="120" height="60" as="geometry" />
        </mxCell>
        <mxCell id="HchQjYpQ1-PrDVRquz_4-46" style="edgeStyle=orthogonalEdgeStyle;rounded=0;orthogonalLoop=1;jettySize=auto;html=1;exitX=1;exitY=0.5;exitDx=0;exitDy=0;entryX=0;entryY=0.5;entryDx=0;entryDy=0;" parent="1" source="HchQjYpQ1-PrDVRquz_4-22" target="HchQjYpQ1-PrDVRquz_4-44" edge="1">
          <mxGeometry relative="1" as="geometry" />
        </mxCell>
        <mxCell id="HchQjYpQ1-PrDVRquz_4-22" value="Dispense Food" style="whiteSpace=wrap;html=1;aspect=fixed;fillColor=#E6FFCC;" parent="1" vertex="1">
          <mxGeometry x="380" y="750" width="80" height="80" as="geometry" />
        </mxCell>
        <mxCell id="HchQjYpQ1-PrDVRquz_4-28" value="" style="edgeStyle=orthogonalEdgeStyle;rounded=0;orthogonalLoop=1;jettySize=auto;html=1;exitX=0.5;exitY=1;exitDx=0;exitDy=0;entryX=0.5;entryY=0;entryDx=0;entryDy=0;" parent="1" source="HchQjYpQ1-PrDVRquz_4-2" target="HchQjYpQ1-PrDVRquz_4-8" edge="1">
          <mxGeometry relative="1" as="geometry">
            <mxPoint x="420" y="80" as="sourcePoint" />
            <mxPoint x="420" y="260" as="targetPoint" />
          </mxGeometry>
        </mxCell>
        <mxCell id="HchQjYpQ1-PrDVRquz_4-31" style="edgeStyle=orthogonalEdgeStyle;rounded=0;orthogonalLoop=1;jettySize=auto;html=1;exitX=1;exitY=0.5;exitDx=0;exitDy=0;entryX=1;entryY=0.5;entryDx=0;entryDy=0;" parent="1" source="HchQjYpQ1-PrDVRquz_4-8" target="HchQjYpQ1-PrDVRquz_4-2" edge="1">
          <mxGeometry relative="1" as="geometry">
            <Array as="points">
              <mxPoint x="510" y="150" />
              <mxPoint x="510" y="30" />
            </Array>
          </mxGeometry>
        </mxCell>
        <mxCell id="HchQjYpQ1-PrDVRquz_4-32" value="No" style="edgeLabel;html=1;align=center;verticalAlign=middle;resizable=0;points=[];" parent="HchQjYpQ1-PrDVRquz_4-31" vertex="1" connectable="0">
          <mxGeometry x="0.1242" y="-2" relative="1" as="geometry">
            <mxPoint as="offset" />
          </mxGeometry>
        </mxCell>
        <mxCell id="HchQjYpQ1-PrDVRquz_4-33" style="edgeStyle=orthogonalEdgeStyle;rounded=0;orthogonalLoop=1;jettySize=auto;html=1;exitX=0.5;exitY=1;exitDx=0;exitDy=0;" parent="1" source="HchQjYpQ1-PrDVRquz_4-8" target="HchQjYpQ1-PrDVRquz_4-29" edge="1">
          <mxGeometry relative="1" as="geometry" />
        </mxCell>
        <mxCell id="HchQjYpQ1-PrDVRquz_4-34" value="Yes" style="edgeLabel;html=1;align=center;verticalAlign=middle;resizable=0;points=[];" parent="HchQjYpQ1-PrDVRquz_4-33" vertex="1" connectable="0">
          <mxGeometry x="-0.21" y="3" relative="1" as="geometry">
            <mxPoint as="offset" />
          </mxGeometry>
        </mxCell>
        <mxCell id="HchQjYpQ1-PrDVRquz_4-8" value="Is it feeding time&lt;div&gt;(8am or 6pm)&lt;/div&gt;" style="rhombus;whiteSpace=wrap;html=1;fillColor=#FFFFCC;" parent="1" vertex="1">
          <mxGeometry x="365" y="100" width="110" height="100" as="geometry" />
        </mxCell>
        <mxCell id="HchQjYpQ1-PrDVRquz_4-37" style="edgeStyle=orthogonalEdgeStyle;rounded=0;orthogonalLoop=1;jettySize=auto;html=1;exitX=0.5;exitY=1;exitDx=0;exitDy=0;entryX=0.5;entryY=0;entryDx=0;entryDy=0;" parent="1" source="HchQjYpQ1-PrDVRquz_4-29" target="HchQjYpQ1-PrDVRquz_4-30" edge="1">
          <mxGeometry relative="1" as="geometry" />
        </mxCell>
        <mxCell id="HchQjYpQ1-PrDVRquz_4-29" value="Check bowl weight sensor" style="shape=parallelogram;perimeter=parallelogramPerimeter;whiteSpace=wrap;html=1;fixedSize=1;fillColor=#007FFF;" parent="1" vertex="1">
          <mxGeometry x="360" y="250" width="120" height="60" as="geometry" />
        </mxCell>
        <mxCell id="HchQjYpQ1-PrDVRquz_4-35" style="edgeStyle=orthogonalEdgeStyle;rounded=0;orthogonalLoop=1;jettySize=auto;html=1;exitX=0.5;exitY=1;exitDx=0;exitDy=0;entryX=0.5;entryY=0;entryDx=0;entryDy=0;" parent="1" source="HchQjYpQ1-PrDVRquz_4-30" target="HchQjYpQ1-PrDVRquz_4-11" edge="1">
          <mxGeometry relative="1" as="geometry" />
        </mxCell>
        <mxCell id="HchQjYpQ1-PrDVRquz_4-36" value="No" style="edgeLabel;html=1;align=center;verticalAlign=middle;resizable=0;points=[];" parent="HchQjYpQ1-PrDVRquz_4-35" vertex="1" connectable="0">
          <mxGeometry x="-0.12" relative="1" as="geometry">
            <mxPoint as="offset" />
          </mxGeometry>
        </mxCell>
        <mxCell id="HchQjYpQ1-PrDVRquz_4-41" style="edgeStyle=orthogonalEdgeStyle;rounded=0;orthogonalLoop=1;jettySize=auto;html=1;exitX=1;exitY=0.5;exitDx=0;exitDy=0;entryX=0.5;entryY=0;entryDx=0;entryDy=0;" parent="1" source="HchQjYpQ1-PrDVRquz_4-30" target="HchQjYpQ1-PrDVRquz_4-21" edge="1">
          <mxGeometry relative="1" as="geometry" />
        </mxCell>
        <mxCell id="HchQjYpQ1-PrDVRquz_4-42" value="Yes" style="edgeLabel;html=1;align=center;verticalAlign=middle;resizable=0;points=[];" parent="HchQjYpQ1-PrDVRquz_4-41" vertex="1" connectable="0">
          <mxGeometry x="-0.7303" y="1" relative="1" as="geometry">
            <mxPoint as="offset" />
          </mxGeometry>
        </mxCell>
        <mxCell id="HchQjYpQ1-PrDVRquz_4-30" value="Is there still food in the bowl?" style="rhombus;whiteSpace=wrap;html=1;fillColor=#FFFFCC;" parent="1" vertex="1">
          <mxGeometry x="370" y="350" width="100" height="90" as="geometry" />
        </mxCell>
        <mxCell id="HchQjYpQ1-PrDVRquz_4-44" value="End" style="ellipse;whiteSpace=wrap;html=1;fillColor=#FF9933;" parent="1" vertex="1">
          <mxGeometry x="530" y="750" width="120" height="80" as="geometry" />
        </mxCell>
        <mxCell id="HchQjYpQ1-PrDVRquz_4-45" style="edgeStyle=orthogonalEdgeStyle;rounded=0;orthogonalLoop=1;jettySize=auto;html=1;exitX=0.5;exitY=1;exitDx=0;exitDy=0;entryX=0.59;entryY=0.047;entryDx=0;entryDy=0;entryPerimeter=0;" parent="1" source="HchQjYpQ1-PrDVRquz_4-21" target="HchQjYpQ1-PrDVRquz_4-44" edge="1">
          <mxGeometry relative="1" as="geometry" />
        </mxCell>
      </root>
    </mxGraphModel>
  </diagram>
</mxfile>
